<svg width="27" height="27" viewBox="0 0 27 27" fill="none" xmlns="http://www.w3.org/2000/svg">
<path d="M25.9949 14.051C26 14.0459 26 14.0459 26.0051 14.0408C26.0204 14.0204 26.0357 14.0051 26.0459 13.9847C26.051 13.9796 26.051 13.9745 26.0561 13.9694C26.0663 13.949 26.0817 13.9286 26.0919 13.9082C26.0919 13.9031 26.097 13.898 26.097 13.898C26.1072 13.8776 26.1174 13.8571 26.1276 13.8316C26.1276 13.8265 26.1276 13.8265 26.1327 13.8214C26.1429 13.801 26.148 13.7755 26.1582 13.75C26.1582 13.7449 26.1582 13.7398 26.1633 13.7398C26.1684 13.7143 26.1786 13.6939 26.1786 13.6684C26.1786 13.6582 26.1786 13.6531 26.1837 13.6429C26.1888 13.6225 26.1888 13.602 26.1939 13.5816C26.199 13.551 26.199 13.5255 26.199 13.4949C26.199 13.4643 26.199 13.4388 26.1939 13.4082C26.1939 13.3878 26.1888 13.3673 26.1837 13.3469C26.1837 13.3367 26.1837 13.3316 26.1786 13.3214C26.1735 13.2959 26.1684 13.2755 26.1633 13.25C26.1633 13.2449 26.1633 13.2398 26.1582 13.2398C26.1531 13.2143 26.1429 13.1939 26.1327 13.1684C26.1327 13.1633 26.1327 13.1633 26.1276 13.1582C26.1174 13.1378 26.1072 13.1122 26.097 13.0918C26.097 13.0867 26.0919 13.0816 26.0919 13.0816C26.0817 13.0612 26.0714 13.0408 26.0561 13.0204C26.051 13.0153 26.051 13.0102 26.0459 13.0051C26.0306 12.9847 26.0204 12.9643 26.0051 12.949C26 12.9439 26 12.9439 25.9949 12.9388C25.9745 12.9184 25.9592 12.8929 25.9337 12.8725L20.8878 7.83163C20.5459 7.4898 19.9898 7.4898 19.648 7.83163C19.3061 8.17347 19.3061 8.72959 19.648 9.07143L23.199 12.6225H9.08165C8.59696 12.6225 8.2041 13.0153 8.2041 13.4949C8.2041 13.9796 8.59696 14.3725 9.08165 14.3725H23.2041L19.6786 17.898C19.3368 18.2398 19.3368 18.7959 19.6786 19.1378C19.847 19.3061 20.0714 19.3929 20.2959 19.3929C20.5204 19.3929 20.7449 19.3061 20.9133 19.1378L25.9286 14.1225C25.9541 14.0918 25.9745 14.0714 25.9949 14.051Z" fill="#F58575" stroke="#F58575" stroke-width="0.2"/>
<path d="M5.75 2.75H12.2806C12.7653 2.75 13.1582 2.35714 13.1582 1.87755C13.1582 1.39286 12.7653 1 12.2806 1H5.75C3.13265 1 1 3.13265 1 5.75V21.2449C1 23.8622 3.13265 25.9949 5.75 25.9949H12.1735C12.6582 25.9949 13.051 25.602 13.051 25.1224C13.051 24.6378 12.6582 24.2449 12.1735 24.2449H5.75C4.09694 24.2449 2.75 22.898 2.75 21.2449V5.75C2.7551 4.09184 4.09694 2.75 5.75 2.75Z" fill="#F58575" stroke="#F58575" stroke-width="0.2"/>
</svg>
